<svg aria-hidden="true" style="position: absolute; width: 0; height: 0; overflow: hidden;" version="1.1" xmlns="http://www.w3.org/2000/svg" xmlns:xlink="http://www.w3.org/1999/xlink">
<defs>
<symbol id="icon-hero__arrow-left" viewBox="0 0 55 32">
<path d="M55.061 14.182h-47.414l10.908-10.909-2.571-2.571-15.298 15.298 15.298 15.298 2.571-2.571-10.909-10.909h47.414v-3.636z"></path>
</symbol>
<symbol id="icon-hero__arrow-right" viewBox="0 0 55 32">
<path d="M39.44 0.702l-2.571 2.571 10.909 10.909h-47.414v3.636h47.414l-10.909 10.909 2.571 2.571 15.298-15.298-15.298-15.298z"></path>
</symbol>
<symbol id="icon-slider__arrow-left" viewBox="0 0 56 32">
<path d="M56.471 14.098h-49.241l11.329-11.409-2.67-2.689-15.888 16 15.888 16 2.67-2.689-11.329-11.409h49.242v-3.803z"></path>
</symbol>
<symbol id="icon-slider__arrow-right" viewBox="0 0 56 32">
<path d="M40.583 0l-2.67 2.689 11.329 11.409h-49.241v3.803h49.241l-11.329 11.409 2.67 2.689 15.888-16-15.888-16z"></path>
</symbol>
</defs>
</svg>
