<svg xmlns="http://www.w3.org/2000/svg" aria-hidden="true" style="position:absolute;width:0;height:0;overflow:hidden">
  <defs>
    <symbol id="icon-hero__arrow-left" viewBox="0 0 55 32">
      <path d="M55.061 14.182H7.647L18.555 3.273 15.984.702.686 16l15.298 15.298 2.571-2.571L7.646 17.818H55.06v-3.636z"/>
    </symbol>
    <symbol id="icon-hero__arrow-right" viewBox="0 0 55 32">
      <path d="m39.44.702-2.571 2.571 10.909 10.909H.364v3.636h47.414L36.869 28.727l2.571 2.571L54.738 16 39.44.702z"/>
    </symbol>
    <symbol id="icon-slider__arrow-left" viewBox="0 0 56 32">
      <path d="M56.471 14.098H7.23L18.559 2.689 15.889 0 .001 16l15.888 16 2.67-2.689L7.23 17.902h49.242v-3.803z"/>
    </symbol>
    <symbol id="icon-slider__arrow-right" viewBox="0 0 56 32">
      <path d="m40.583 0-2.67 2.689 11.329 11.409H.001v3.803h49.241L37.913 29.31l2.67 2.689 15.888-16-15.888-16z"/>
    </symbol>
  </defs>
</svg>
